HIERARCHY
ROOT hip
{
  OFFSET 11.2552 75.2139 -293.28
  CHANNELS 6 Xposition Yposition Zposition Zrotation Xrotation Yrotation
  JOINT abdomen
  {
    OFFSET 0 20.6881 -0.73152
    CHANNELS 3 Zrotation Xrotation Yrotation
    JOINT chest
    {
      OFFSET 0 11.7043 -0.48768
      CHANNELS 3 Zrotation Xrotation Yrotation
      JOINT neck
      {
        OFFSET 0 22.1894 -2.19456
        CHANNELS 3 Zrotation Xrotation Yrotation
        JOINT head
        {
          OFFSET -0.24384 7.07133 1.2192
          CHANNELS 3 Zrotation Xrotation Yrotation
          JOINT leftEye
          {
            OFFSET 4.14528 8.04674 8.04672
            CHANNELS 3 Zrotation Xrotation Yrotation
            End Site
            {
              OFFSET 1 0 0
            }
          }
          JOINT rightEye
          {
            OFFSET -3.6576 8.04674 8.04672
            CHANNELS 3 Zrotation Xrotation Yrotation
            End Site
            {
              OFFSET 1 0 0
            }
          }
        }
      }
      JOINT rCollar
      {
        OFFSET -2.68224 19.2634 -4.8768
        CHANNELS 3 Zrotation Xrotation Yrotation
        JOINT rShldr
        {
          OFFSET -8.77824 -1.95073 1.46304
          CHANNELS 3 Zrotation Xrotation Yrotation
          JOINT rForeArm
          {
            OFFSET -28.1742 -1.7115 0.48768
            CHANNELS 3 Zrotation Xrotation Yrotation
            JOINT rHand
            {
              OFFSET -22.5879 0.773209 7.07136
              CHANNELS 3 Zrotation Xrotation Yrotation
              JOINT rThumb1
              {
                OFFSET -1.2192 -0.487915 3.41376
                CHANNELS 3 Zrotation Xrotation Yrotation
                JOINT rThumb2
                {
                  OFFSET -3.37035 -0.52449 3.41376
                  CHANNELS 3 Zrotation Xrotation Yrotation
                  End Site
                  {
                    OFFSET -1.78271 -1.18214 1.43049
                  }
                }
              }
              JOINT rIndex1
              {
                OFFSET -7.75947 0.938293 5.60832
                CHANNELS 3 Zrotation Xrotation Yrotation
                JOINT rIndex2
                {
                  OFFSET -2.54057 -0.884171 1.56538
                  CHANNELS 3 Zrotation Xrotation Yrotation
                  End Site
                  {
                    OFFSET -1.62519 -0.234802 1.16502
                  }
                }
              }
              JOINT rMid1
              {
                OFFSET -8.24714 1.18213 3.41376
                CHANNELS 3 Zrotation Xrotation Yrotation
                JOINT rMid2
                {
                  OFFSET -3.10165 -0.590103 1.0647
                  CHANNELS 3 Zrotation Xrotation Yrotation
                  End Site
                  {
                    OFFSET -2.48547 -0.328903 0.83742
                  }
                }
              }
              JOINT rRing1
              {
                OFFSET -8.82822 0.546677 1.51678
                CHANNELS 3 Zrotation Xrotation Yrotation
                JOINT rRing2
                {
                  OFFSET -2.60934 -0.819778 -0.0198488
                  CHANNELS 3 Zrotation Xrotation Yrotation
                  End Site
                  {
                    OFFSET -2.33842 -0.294052 0.168128
                  }
                }
              }
              JOINT rPinky1
              {
                OFFSET -8.27202 -0.0477905 -0.4584
                CHANNELS 3 Zrotation Xrotation Yrotation
                JOINT rPinky2
                {
                  OFFSET -1.82734 -0.647385 -0.700984
                  CHANNELS 3 Zrotation Xrotation Yrotation
                  End Site
                  {
                    OFFSET -1.69225 -0.51767 -0.607171
                  }
                }
              }
            }
          }
        }
      }
      JOINT lCollar
      {
        OFFSET 2.68224 19.2634 -4.8768
        CHANNELS 3 Zrotation Xrotation Yrotation
        JOINT lShldr
        {
          OFFSET 8.77824 -1.95073 1.46304
          CHANNELS 3 Zrotation Xrotation Yrotation
          JOINT lForeArm
          {
            OFFSET 28.1742 -1.7115 0.48768
            CHANNELS 3 Zrotation Xrotation Yrotation
            JOINT lHand
            {
              OFFSET 22.5879 0.773209 7.07136
              CHANNELS 3 Zrotation Xrotation Yrotation
              JOINT lThumb1
              {
                OFFSET 1.2192 -0.487915 3.41376
                CHANNELS 3 Zrotation Xrotation Yrotation
                JOINT lThumb2
                {
                  OFFSET 3.37035 -0.52449 3.41376
                  CHANNELS 3 Zrotation Xrotation Yrotation
                  End Site
                  {
                    OFFSET 1.78271 -1.18214 1.43049
                  }
                }
              }
              JOINT lIndex1
              {
                OFFSET 7.75947 0.938293 5.60832
                CHANNELS 3 Zrotation Xrotation Yrotation
                JOINT lIndex2
                {
                  OFFSET 2.54057 -0.884171 1.56538
                  CHANNELS 3 Zrotation Xrotation Yrotation
                  End Site
                  {
                    OFFSET 1.62519 -0.234802 1.16502
                  }
                }
              }
              JOINT lMid1
              {
                OFFSET 8.24714 1.18213 3.41376
                CHANNELS 3 Zrotation Xrotation Yrotation
                JOINT lMid2
                {
                  OFFSET 3.10165 -0.590103 1.0647
                  CHANNELS 3 Zrotation Xrotation Yrotation
                  End Site
                  {
                    OFFSET 2.48547 -0.328903 0.83742
                  }
                }
              }
              JOINT lRing1
              {
                OFFSET 8.82822 0.546677 1.51678
                CHANNELS 3 Zrotation Xrotation Yrotation
                JOINT lRing2
                {
                  OFFSET 2.60934 -0.819778 -0.0198488
                  CHANNELS 3 Zrotation Xrotation Yrotation
                  End Site
                  {
                    OFFSET 2.33842 -0.294052 0.168128
                  }
                }
              }
              JOINT lPinky1
              {
                OFFSET 8.27202 -0.0477905 -0.4584
                CHANNELS 3 Zrotation Xrotation Yrotation
                JOINT lPinky2
                {
                  OFFSET 1.82734 -0.647385 -0.700984
                  CHANNELS 3 Zrotation Xrotation Yrotation
                  End Site
                  {
                    OFFSET 1.69225 -0.51767 -0.607171
                  }
                }
              }
            }
          }
        }
      }
    }
  }
  JOINT rButtock
  {
    OFFSET -8.77824 4.35084 1.2192
    CHANNELS 3 Zrotation Xrotation Yrotation
    JOINT rThigh
    {
      OFFSET 0 -1.70687 -2.19456
      CHANNELS 3 Zrotation Xrotation Yrotation
      JOINT rShin
      {
        OFFSET 0 -36.8199 0.73152
        CHANNELS 3 Zrotation Xrotation Yrotation
        JOINT rFoot
        {
          OFFSET 0.73152 -45.1104 -5.12064
          CHANNELS 3 Zrotation Xrotation Yrotation
          End Site
          {
            OFFSET -1.1221 -3.69964 12.103
          }
        }
      }
    }
  }
  JOINT lButtock
  {
    OFFSET 8.77824 4.35084 1.2192
    CHANNELS 3 Zrotation Xrotation Yrotation
    JOINT lThigh
    {
      OFFSET 0 -1.70687 -2.19456
      CHANNELS 3 Zrotation Xrotation Yrotation
      JOINT lShin
      {
        OFFSET 0 -36.8199 0.73152
        CHANNELS 3 Zrotation Xrotation Yrotation
        JOINT lFoot
        {
          OFFSET -0.73152 -45.1104 -5.12064
          CHANNELS 3 Zrotation Xrotation Yrotation
          End Site
          {
            OFFSET 1.1221 -3.69964 12.103
          }
        }
      }
    }
  }
}
MOTION
Frames:	8
Frame Time:	0.00833333
-18.651 61.494 240.312 -1.19745 0.00337701 0.0224831 1.57501 -0.00270819 0.0428955 0.434159 0.0015155 0.0751861 -2.84605e-014 1.59028e-015 -6.70898e-016 -8.53283e-014 9.54166e-015 -1.99251e-015 -0 0 0 -0 0 0 -1.43641e-014 -1.51418e-017 -1.98785e-016 -2.98688e-013 -2.48481e-016 -6.95746e-015 -5.16234e-012 1.53223e-012 -9.85972e-014 -5.89946e-011 -1.6078e-012 -1.45987e-012 -1.39174e-010 -1.6703e-013 -3.37457e-012 -2.40365e-010 -2.8943e-013 -5.82598e-012 -1.39171e-010 -1.68172e-013 -3.38411e-012 7.73091 5.47488 0.417314 -1.39174e-010 -1.67774e-013 -3.37139e-012 2.90554 0.965183 0.102902 -1.39168e-010 -1.67277e-013 -3.37298e-012 10.2786 0.731801 0.0259123 -1.39179e-010 -1.63401e-013 -3.36503e-012 2.22167 -0.733487 -0.20892 -1.456e-014 -1.86361e-017 -3.97569e-016 -3.00622e-013 7.45443e-017 -8.74653e-015 -5.14713e-012 -1.55966e-012 -6.36111e-014 -5.90144e-011 1.4927e-012 -1.49486e-012 -1.39181e-010 -1.53162e-013 -3.38093e-012 -2.40345e-010 -2.67167e-013 -5.83393e-012 -1.39183e-010 -1.53462e-013 -3.37139e-012 -7.73091 5.47488 -0.417314 -1.39181e-010 -1.53959e-013 -3.38411e-012 -2.90554 0.965183 -0.102902 -1.39189e-010 -1.53164e-013 -3.37934e-012 -10.2786 0.731801 -0.0259123 -1.39169e-010 -1.49884e-013 -3.38411e-012 -2.22167 -0.733487 0.20892 -2.03217e-016 0 -3.88251e-019 1.70483 -6.604 -0.159333 0.002587 6.39963 0.0733631 -0.528008 0.199761 0.0640884 2.03217e-016 0 3.88251e-019 0.692226 -1.9236 0.00557823 0.00917597 -2.07857 0.0757322 0.502746 3.99746 -0.138924 
-20.3912 58.2596 237.589 -3.87546 4.17418 48.7533 0.0501083 3.22873 -3.47855 2.32555 -2.81259 -0.730678 0.160582 -0.689615 0.559393 -1.36501 -4.96095 0.880428 -0 0 0 -0 0 0 -1.0861e-013 -3.63614e-013 5.8339e-014 21.4422 10.3879 -13.3217 -18.4068 -16.0109 15.1137 0.0250794 -3.51971 -0.491314 -5.25119e-010 3.51903e-010 -9.16606e-012 -9.04821e-010 6.08599e-010 -1.8875e-011 -5.25116e-010 3.51903e-010 -9.17364e-012 7.73091 5.47488 0.417314 -5.2512e-010 3.51903e-010 -9.16353e-012 2.90554 0.965183 0.102902 -5.25111e-010 3.51903e-010 -9.16392e-012 10.2786 0.731801 0.0259123 -5.25124e-010 3.51905e-010 -9.15659e-012 2.22167 -0.733487 -0.20892 -1.08761e-013 -3.63614e-013 5.81402e-014 -20.3053 13.2049 -5.28442 -1.88479 15.2903 41.7749 -0.0115671 -2.39153 0.335058 -5.14228e-010 8.35672e-010 -2.28005e-010 -8.80131e-010 1.42031e-009 -4.01449e-010 -5.1423e-010 8.3567e-010 -2.27991e-010 -7.73091 5.47488 -0.417314 -5.14227e-010 8.35668e-010 -2.28004e-010 -2.90554 0.965183 -0.102902 -5.14236e-010 8.35671e-010 -2.28001e-010 -10.2786 0.731801 -0.0259123 -5.14218e-010 8.35674e-010 -2.28004e-010 -2.22167 -0.733487 0.20892 -2.03217e-016 0 -3.88251e-019 -0.00320436 -27.0419 -2.59492 -0.0831408 23.1991 0.289057 -0.96499 -2.28076 -2.39823 2.03217e-016 0 3.88251e-019 -0.629924 0.902219 -2.76314 -0.0992339 5.99374 -0.216034 0.983991 7.60059 -2.53738 
-20.3112 58.4707 235.908 -9.7386 -2.20994 99.6349 -1.13471 6.57878 -7.25983 4.24677 -5.77532 -1.59372 0.348141 -1.41126 1.1493 -2.6442 -10.1652 1.82748 -0 0 0 -0 0 0 -2.12421e-013 -7.60758e-013 1.21926e-013 49.4266 19.5157 -28.8074 -28.0568 -29.0949 34.7332 -0.0146689 -7.26279 -1.02016 -9.40674e-010 7.34096e-010 -4.70007e-012 -1.62032e-009 1.26957e-009 -1.44613e-011 -9.40672e-010 7.34098e-010 -4.70543e-012 7.73091 5.47488 0.417314 -9.40675e-010 7.34097e-010 -4.69808e-012 2.90554 0.965183 0.102902 -9.40665e-010 7.34097e-010 -4.69728e-012 10.2786 0.731801 0.0259123 -9.40679e-010 7.34096e-010 -4.69073e-012 2.22167 -0.733487 -0.20892 -2.12526e-013 -7.60755e-013 1.21728e-013 -38.8224 26.7336 -11.8996 -17.7745 5.09014 84.1994 0.00680698 -4.93815 0.693841 -9.20981e-010 1.7129e-009 -4.90026e-010 -1.57391e-009 2.91022e-009 -8.62378e-010 -9.20983e-010 1.71289e-009 -4.90006e-010 -7.73091 5.47488 -0.417314 -9.20978e-010 1.71289e-009 -4.90021e-010 -2.90554 0.965183 -0.102902 -9.20988e-010 1.7129e-009 -4.9002e-010 -10.2786 0.731801 -0.0259123 -9.20972e-010 1.7129e-009 -4.90021e-010 -2.22167 -0.733487 0.20892 -2.03217e-016 0 -3.88251e-019 -4.64208 -48.5471 -6.98483 -0.360562 40.9354 0.618835 -1.64784 -4.84281 -4.98617 2.03217e-016 0 3.88251e-019 -1.72371 3.96353 -5.7362 -0.122119 14.3496 -0.539205 1.81267 11.2361 -5.12293 
-20.1899 58.74 234.212 -5.94363 -15.5552 144.196 -1.8014 9.54517 -10.6541 5.86876 -8.4344 -2.36536 0.52216 -2.06805 1.67915 -3.62434 -14.8685 2.72262 -0 0 0 -0 0 0 -2.97101e-013 -1.09081e-012 1.75415e-013 78.5885 24.2142 -43.9841 -28.9524 -33.5393 55.7411 -0.108484 -10.556 -1.49649 -1.29701e-009 1.05604e-009 -2.0749e-011 -2.23373e-009 1.82637e-009 -4.4973e-011 -1.29701e-009 1.05605e-009 -2.07527e-011 7.73091 5.47488 0.417314 -1.29701e-009 1.05605e-009 -2.07478e-011 2.90554 0.965183 0.102902 -1.297e-009 1.05604e-009 -2.07458e-011 10.2786 0.731801 0.0259123 -1.29701e-009 1.05604e-009 -2.07397e-011 2.22167 -0.733487 -0.20892 -2.97164e-013 -1.09081e-012 1.75216e-013 -52.0556 38.0785 -19.7588 -22.6297 -25.7374 105.896 0.0497698 -7.1736 1.01222 -1.26432e-009 2.50732e-009 -6.77253e-010 -2.1597e-009 4.26146e-009 -1.19268e-009 -1.26432e-009 2.50732e-009 -6.77229e-010 -7.73091 5.47488 -0.417314 -1.26432e-009 2.50731e-009 -6.77245e-010 -2.90554 0.965183 -0.102902 -1.26433e-009 2.50732e-009 -6.77245e-010 -10.2786 0.731801 -0.0259123 -1.26432e-009 2.50732e-009 -6.77245e-010 -2.22167 -0.733487 0.20892 -2.03217e-016 0 -3.88251e-019 -15.8243 -67.0635 -17.1977 -0.924381 56.7932 1.18919 -2.48088 -7.18846 -7.37545 2.03217e-016 0 3.88251e-019 -2.45392 6.48804 -8.35341 -0.0544349 22.1362 -0.859264 2.87673 14.7071 -7.51565 
-20.0842 58.924 232.519 5.39524 -23.1174 177.592 -2.01671 11.6935 -12.9573 6.91339 -10.3407 -2.88661 0.634683 -2.56345 2.05796 -4.18226 -18.3323 3.41489 -0 0 0 -0 0 0 -3.33951e-013 -1.25314e-012 2.03655e-013 100.309 24.8981 -54.394 -28.1273 -31.4342 69.5438 -0.202894 -12.7276 -1.81907 -1.50529e-009 1.22738e-009 -8.80855e-011 -2.59193e-009 2.12275e-009 -1.62798e-010 -1.50529e-009 1.22738e-009 -8.80886e-011 7.73091 5.47488 0.417314 -1.50529e-009 1.22738e-009 -8.80855e-011 2.90554 0.965183 0.102902 -1.50528e-009 1.22738e-009 -8.80823e-011 10.2786 0.731801 0.0259123 -1.5053e-009 1.22737e-009 -8.80759e-011 2.22167 -0.733487 -0.20892 -3.33987e-013 -1.25313e-012 2.03456e-013 -58.82 45.4106 -27.0792 -20.6697 -52.8138 112.563 0.0922696 -8.63211 1.22252 -1.44914e-009 3.09474e-009 -6.77496e-010 -2.47551e-009 5.26602e-009 -1.19642e-009 -1.44914e-009 3.09474e-009 -6.77471e-010 -7.73091 5.47488 -0.417314 -1.44913e-009 3.09473e-009 -6.77487e-010 -2.90554 0.965183 -0.102902 -1.44914e-009 3.09474e-009 -6.77488e-010 -10.2786 0.731801 -0.0259123 -1.44913e-009 3.09474e-009 -6.77487e-010 -2.22167 -0.733487 0.20892 -2.03217e-016 0 -3.88251e-019 -41.2649 -78.1277 -41.5793 -1.82593 67.9576 2.10496 -3.26824 -9.03886 -9.22359 2.03217e-016 0 3.88251e-019 -2.91149 7.74595 -10.0126 0.0626481 28.502 -1.12029 3.93445 17.8475 -9.29824 
-19.9736 59.2057 230.749 11.7846 -24.4054 -168.233 -2.04083 12.7833 -13.6484 7.23454 -11.2129 -3.04221 0.650589 -2.84605 2.23194 -4.2985 -20.0645 3.78255 -0 0 0 -0 0 0 -2.93142e-013 -1.1571e-012 1.92894e-013 108.613 24.5071 -57.4823 -28.0434 -29.4401 73.9183 -0.23649 -13.3103 -1.90755 -1.51437e-009 1.14915e-009 -1.71303e-010 -2.60724e-009 1.98781e-009 -3.06362e-010 -1.51436e-009 1.14915e-009 -1.71308e-010 7.73091 5.47488 0.417314 -1.51437e-009 1.14915e-009 -1.71305e-010 2.90554 0.965183 0.102902 -1.51436e-009 1.14915e-009 -1.71301e-010 10.2786 0.731801 0.0259123 -1.51437e-009 1.14915e-009 -1.71293e-010 2.22167 -0.733487 -0.20892 -2.93171e-013 -1.15709e-012 1.92694e-013 -60.8644 48.5108 -30.4624 -19.7126 -63.8624 112.963 0.106152 -8.97914 1.27311 -1.35299e-009 3.05858e-009 -4.58077e-010 -2.31136e-009 5.20954e-009 -8.15225e-010 -1.35299e-009 3.05857e-009 -4.58055e-010 -7.73091 5.47488 -0.417314 -1.35298e-009 3.05857e-009 -4.58069e-010 -2.90554 0.965183 -0.102902 -1.35299e-009 3.05858e-009 -4.5807e-010 -10.2786 0.731801 -0.0259123 -1.35298e-009 3.05858e-009 -4.58069e-010 -2.22167 -0.733487 0.20892 -2.03217e-016 0 -3.88251e-019 -61.3616 -80.8552 -61.132 -2.54133 72.5979 2.90098 -3.79801 -10.2169 -10.2587 2.03217e-016 0 3.88251e-019 -3.29371 7.36015 -10.3297 0.153631 32.7663 -1.25218 4.77196 20.9346 -10.1602 
-19.8512 59.4246 229.027 11.3674 -24.4424 -169.091 -2.02117 13.1461 -13.161 7.05691 -11.3471 -2.93188 0.594174 -2.97623 2.25907 -4.14307 -20.5633 3.89873 -0 0 0 -0 0 0 -1.97371e-013 -8.77639e-013 1.54449e-013 107.094 24.3243 -55.5045 -27.9991 -29.4142 72.936 -0.215213 -12.7595 -1.82542 -1.38077e-009 8.94516e-010 -2.68527e-010 -2.37696e-009 1.54795e-009 -4.72905e-010 -1.38076e-009 8.94515e-010 -2.68534e-010 7.73091 5.47488 0.417314 -1.38077e-009 8.94518e-010 -2.68533e-010 2.90554 0.965183 0.102902 -1.38076e-009 8.94517e-010 -2.68526e-010 10.2786 0.731801 0.0259123 -1.38078e-009 8.94516e-010 -2.68516e-010 2.22167 -0.733487 -0.20892 -1.97409e-013 -8.77628e-013 1.54248e-013 -60.9658 49.0845 -29.852 -20.2816 -62.3727 112.104 0.0949316 -8.53355 1.2088 -1.05896e-009 2.59288e-009 -7.9751e-011 -1.80924e-009 4.42258e-009 -1.55643e-010 -1.05897e-009 2.59287e-009 -7.97345e-011 -7.73091 5.47488 -0.417314 -1.05896e-009 2.59288e-009 -7.9745e-011 -2.90554 0.965183 -0.102902 -1.05897e-009 2.59288e-009 -7.97448e-011 -10.2786 0.731801 -0.0259123 -1.05896e-009 2.59288e-009 -7.97464e-011 -2.22167 -0.733487 0.20892 -2.03217e-016 0 -3.88251e-019 -51.0146 -80.4446 -50.7315 -2.51098 72.5818 3.01107 -4.09121 -10.9271 -10.7031 2.03217e-016 0 3.88251e-019 -3.62957 5.80043 -9.68852 0.193101 35.5356 -1.27261 5.3593 23.9879 -10.3484 
-19.7097 59.6251 227.327 8.06067 -24.0353 -176.059 -1.89609 13.2379 -12.1988 6.66791 -11.1612 -2.71413 0.50534 -3.02519 2.21584 -3.89542 -20.5786 3.88951 -0 0 0 -0 0 0 -9.67338e-014 -5.62491e-013 1.10777e-013 101.728 24.0354 -51.3851 -27.9576 -30.0671 69.7653 -0.177031 -11.7886 -1.68126 -1.1772e-009 6.3123e-010 -4.60828e-010 -2.02535e-009 1.09289e-009 -8.03041e-010 -1.17719e-009 6.31227e-010 -4.60838e-010 7.73091 5.47488 0.417314 -1.1772e-009 6.31232e-010 -4.60836e-010 2.90554 0.965183 0.102902 -1.17719e-009 6.31231e-010 -4.60828e-010 10.2786 0.731801 0.0259123 -1.1772e-009 6.31232e-010 -4.60816e-010 2.22167 -0.733487 -0.20892 -9.67826e-014 -5.62481e-013 1.10575e-013 -60.536 48.618 -27.4132 -21.2267 -55.8052 110.81 0.0767712 -7.80997 1.10465 -7.80222e-010 2.48944e-009 4.29521e-010 -1.33511e-009 4.26454e-009 7.30916e-010 -7.80228e-010 2.48943e-009 4.29531e-010 -7.73091 5.47488 -0.417314 -7.8022e-010 2.48944e-009 4.29524e-010 -2.90554 0.965183 -0.102902 -7.80229e-010 2.48944e-009 4.29526e-010 -10.2786 0.731801 -0.0259123 -7.80222e-010 2.48944e-009 4.29522e-010 -2.22167 -0.733487 0.20892 -2.03217e-016 0 -3.88251e-019 -32.6408 -77.9151 -32.52 -2.10153 70.6384 2.75726 -4.29185 -11.4704 -10.949 2.03217e-016 0 3.88251e-019 -3.80433 3.63109 -8.61263 0.207733 37.8892 -1.24919 5.70244 26.468 -10.2436 
